<?xml version="1.0" encoding="UTF-8"?>
<svg width="14px" height="14px" viewBox="0 0 14 14" version="1.1" xmlns="http://www.w3.org/2000/svg" xmlns:xlink="http://www.w3.org/1999/xlink">
    <!-- Generator: Sketch 49.3 (51167) - http://www.bohemiancoding.com/sketch -->
    <title>ic_calendar</title>
    <desc>Created with Sketch.</desc>
    <defs></defs>
    <g id="client-visits" stroke="none" stroke-width="1" fill="none" fill-rule="evenodd">
        <g id="00-02-01-00-client-visit" transform="translate(-119.000000, -179.000000)">
            <g id="left_panel" transform="translate(0.000000, 120.000000)">
                <g id="period" transform="translate(24.000000, 24.000000)">
                    <g id="from" transform="translate(0.000000, 27.000000)">
                        <g id="ic_calendar" transform="translate(94.000000, 8.000000)">
                            <rect id="box" x="0" y="0" width="16" height="16"></rect>
                            <path d="M14,1.0078125 C14.1406257,1.0078125 14.257812,1.05468703 14.3515625,1.1484375 C14.445313,1.24218797 14.4921875,1.3593743 14.4921875,1.5 L14.4921875,13.5 C14.4921875,13.6406257 14.445313,13.757812 14.3515625,13.8515625 C14.257812,13.945313 14.1406257,13.9921875 14,13.9921875 L2,13.9921875 C1.8593743,13.9921875 1.74218797,13.945313 1.6484375,13.8515625 C1.55468703,13.757812 1.5078125,13.6406257 1.5078125,13.5 L1.5078125,1.5 C1.5078125,1.3593743 1.55468703,1.24218797 1.6484375,1.1484375 C1.74218797,1.05468703 1.8593743,1.0078125 2,1.0078125 L4.5078125,1.0078125 L4.5078125,0.4921875 C4.5078125,0.351561797 4.55468703,0.234375469 4.6484375,0.140625 C4.74218797,0.0468745313 4.8593743,0 5,0 C5.1406257,0 5.25781203,0.0468745313 5.3515625,0.140625 C5.44531297,0.234375469 5.4921875,0.351561797 5.4921875,0.4921875 L5.4921875,1.0078125 L10.5078125,1.0078125 L10.5078125,0.4921875 C10.5078125,0.351561797 10.554687,0.234375469 10.6484375,0.140625 C10.742188,0.0468745313 10.8593743,0 11,0 C11.1406257,0 11.257812,0.0468745313 11.3515625,0.140625 C11.445313,0.234375469 11.4921875,0.351561797 11.4921875,0.4921875 L11.4921875,1.0078125 L14,1.0078125 Z M13.5078125,13.0078125 L13.5078125,1.9921875 L11.4921875,1.9921875 L11.4921875,2.5078125 C11.4921875,2.6484382 11.445313,2.76562453 11.3515625,2.859375 C11.257812,2.95312547 11.1406257,3 11,3 C10.8593743,3 10.742188,2.95312547 10.6484375,2.859375 C10.554687,2.76562453 10.5078125,2.6484382 10.5078125,2.5078125 L10.5078125,1.9921875 L5.4921875,1.9921875 L5.4921875,2.5078125 C5.4921875,2.6484382 5.44531297,2.76562453 5.3515625,2.859375 C5.25781203,2.95312547 5.1406257,3 5,3 C4.8593743,3 4.74218797,2.95312547 4.6484375,2.859375 C4.55468703,2.76562453 4.5078125,2.6484382 4.5078125,2.5078125 L4.5078125,1.9921875 L2.4921875,1.9921875 L2.4921875,13.0078125 L13.5078125,13.0078125 Z M4.5078125,4.9921875 C4.5078125,5.1328132 4.45703176,5.25390574 4.35546875,5.35546875 C4.25390574,5.45703176 4.1328132,5.5078125 3.9921875,5.5078125 C3.8515618,5.5078125 3.73437547,5.45703176 3.640625,5.35546875 C3.54687453,5.25390574 3.5,5.1328132 3.5,4.9921875 C3.5,4.8515618 3.54687453,4.73437547 3.640625,4.640625 C3.73437547,4.54687453 3.8515618,4.5 3.9921875,4.5 C4.1328132,4.5 4.25390574,4.54687453 4.35546875,4.640625 C4.45703176,4.73437547 4.5078125,4.8515618 4.5078125,4.9921875 Z M6.5,4.9921875 C6.5,5.1328132 6.45312547,5.25390574 6.359375,5.35546875 C6.26562453,5.45703176 6.1484382,5.5078125 6.0078125,5.5078125 C5.8671868,5.5078125 5.74609426,5.45703176 5.64453125,5.35546875 C5.54296824,5.25390574 5.4921875,5.1328132 5.4921875,4.9921875 C5.4921875,4.8515618 5.54296824,4.73437547 5.64453125,4.640625 C5.74609426,4.54687453 5.8671868,4.5 6.0078125,4.5 C6.1484382,4.5 6.26562453,4.54687453 6.359375,4.640625 C6.45312547,4.73437547 6.5,4.8515618 6.5,4.9921875 Z M8.4921875,4.9921875 C8.4921875,5.1328132 8.44531297,5.25390574 8.3515625,5.35546875 C8.25781203,5.45703176 8.1406257,5.5078125 8,5.5078125 C7.8593743,5.5078125 7.74218797,5.45703176 7.6484375,5.35546875 C7.55468703,5.25390574 7.5078125,5.1328132 7.5078125,4.9921875 C7.5078125,4.8515618 7.55468703,4.73437547 7.6484375,4.640625 C7.74218797,4.54687453 7.8593743,4.5 8,4.5 C8.1406257,4.5 8.25781203,4.54687453 8.3515625,4.640625 C8.44531297,4.73437547 8.4921875,4.8515618 8.4921875,4.9921875 Z M4.5078125,7.0078125 C4.5078125,7.1484382 4.45703176,7.26562453 4.35546875,7.359375 C4.25390574,7.45312547 4.1328132,7.5 3.9921875,7.5 C3.8515618,7.5 3.73437547,7.45312547 3.640625,7.359375 C3.54687453,7.26562453 3.5,7.1484382 3.5,7.0078125 C3.5,6.8671868 3.54687453,6.74609426 3.640625,6.64453125 C3.73437547,6.54296824 3.8515618,6.4921875 3.9921875,6.4921875 C4.1328132,6.4921875 4.25390574,6.54296824 4.35546875,6.64453125 C4.45703176,6.74609426 4.5078125,6.8671868 4.5078125,7.0078125 Z M6.5,7.0078125 C6.5,7.1484382 6.45312547,7.26562453 6.359375,7.359375 C6.26562453,7.45312547 6.1484382,7.5 6.0078125,7.5 C5.8671868,7.5 5.74609426,7.45312547 5.64453125,7.359375 C5.54296824,7.26562453 5.4921875,7.1484382 5.4921875,7.0078125 C5.4921875,6.8671868 5.54296824,6.74609426 5.64453125,6.64453125 C5.74609426,6.54296824 5.8671868,6.4921875 6.0078125,6.4921875 C6.1484382,6.4921875 6.26562453,6.54296824 6.359375,6.64453125 C6.45312547,6.74609426 6.5,6.8671868 6.5,7.0078125 Z M8.4921875,7.0078125 C8.4921875,7.1484382 8.44531297,7.26562453 8.3515625,7.359375 C8.25781203,7.45312547 8.1406257,7.5 8,7.5 C7.8593743,7.5 7.74218797,7.45312547 7.6484375,7.359375 C7.55468703,7.26562453 7.5078125,7.1484382 7.5078125,7.0078125 C7.5078125,6.8671868 7.55468703,6.74609426 7.6484375,6.64453125 C7.74218797,6.54296824 7.8593743,6.4921875 8,6.4921875 C8.1406257,6.4921875 8.25781203,6.54296824 8.3515625,6.64453125 C8.44531297,6.74609426 8.4921875,6.8671868 8.4921875,7.0078125 Z M10.5078125,4.9921875 C10.5078125,5.1328132 10.4570318,5.25390574 10.3554688,5.35546875 C10.2539057,5.45703176 10.1328132,5.5078125 9.9921875,5.5078125 C9.8515618,5.5078125 9.73437547,5.45703176 9.640625,5.35546875 C9.54687453,5.25390574 9.5,5.1328132 9.5,4.9921875 C9.5,4.8515618 9.54687453,4.73437547 9.640625,4.640625 C9.73437547,4.54687453 9.8515618,4.5 9.9921875,4.5 C10.1328132,4.5 10.2539057,4.54687453 10.3554688,4.640625 C10.4570318,4.73437547 10.5078125,4.8515618 10.5078125,4.9921875 Z M10.5078125,7.0078125 C10.5078125,7.1484382 10.4570318,7.26562453 10.3554688,7.359375 C10.2539057,7.45312547 10.1328132,7.5 9.9921875,7.5 C9.8515618,7.5 9.73437547,7.45312547 9.640625,7.359375 C9.54687453,7.26562453 9.5,7.1484382 9.5,7.0078125 C9.5,6.8671868 9.54687453,6.74609426 9.640625,6.64453125 C9.73437547,6.54296824 9.8515618,6.4921875 9.9921875,6.4921875 C10.1328132,6.4921875 10.2539057,6.54296824 10.3554688,6.64453125 C10.4570318,6.74609426 10.5078125,6.8671868 10.5078125,7.0078125 Z M12.0078125,4.5 C12.1484382,4.5 12.2656245,4.54687453 12.359375,4.640625 C12.4531255,4.73437547 12.5,4.8515618 12.5,4.9921875 C12.5,5.1328132 12.4531255,5.25390574 12.359375,5.35546875 C12.2656245,5.45703176 12.1484382,5.5078125 12.0078125,5.5078125 C11.8671868,5.5078125 11.7460943,5.45703176 11.6445312,5.35546875 C11.5429682,5.25390574 11.4921875,5.1328132 11.4921875,4.9921875 C11.4921875,4.8515618 11.5429682,4.73437547 11.6445312,4.640625 C11.7460943,4.54687453 11.8671868,4.5 12.0078125,4.5 Z M12.5,7.0078125 C12.5,7.1484382 12.4531255,7.26562453 12.359375,7.359375 C12.2656245,7.45312547 12.1484382,7.5 12.0078125,7.5 C11.8671868,7.5 11.7460943,7.45312547 11.6445312,7.359375 C11.5429682,7.26562453 11.4921875,7.1484382 11.4921875,7.0078125 C11.4921875,6.8671868 11.5429682,6.74609426 11.6445312,6.64453125 C11.7460943,6.54296824 11.8671868,6.4921875 12.0078125,6.4921875 C12.1484382,6.4921875 12.2656245,6.54296824 12.359375,6.64453125 C12.4531255,6.74609426 12.5,6.8671868 12.5,7.0078125 Z M4.5078125,9 C4.5078125,9.1406257 4.45703176,9.25781203 4.35546875,9.3515625 C4.25390574,9.44531297 4.1328132,9.4921875 3.9921875,9.4921875 C3.8515618,9.4921875 3.73437547,9.44531297 3.640625,9.3515625 C3.54687453,9.25781203 3.5,9.1406257 3.5,9 C3.5,8.8593743 3.54687453,8.74218797 3.640625,8.6484375 C3.73437547,8.55468703 3.8515618,8.5078125 3.9921875,8.5078125 C4.1328132,8.5078125 4.25390574,8.55468703 4.35546875,8.6484375 C4.45703176,8.74218797 4.5078125,8.8593743 4.5078125,9 Z M6.5,9 C6.5,9.1406257 6.45312547,9.25781203 6.359375,9.3515625 C6.26562453,9.44531297 6.1484382,9.4921875 6.0078125,9.4921875 C5.8671868,9.4921875 5.74609426,9.44531297 5.64453125,9.3515625 C5.54296824,9.25781203 5.4921875,9.1406257 5.4921875,9 C5.4921875,8.8593743 5.54296824,8.74218797 5.64453125,8.6484375 C5.74609426,8.55468703 5.8671868,8.5078125 6.0078125,8.5078125 C6.1484382,8.5078125 6.26562453,8.55468703 6.359375,8.6484375 C6.45312547,8.74218797 6.5,8.8593743 6.5,9 Z M8.4921875,9 C8.4921875,9.1406257 8.44531297,9.25781203 8.3515625,9.3515625 C8.25781203,9.44531297 8.1406257,9.4921875 8,9.4921875 C7.8593743,9.4921875 7.74218797,9.44531297 7.6484375,9.3515625 C7.55468703,9.25781203 7.5078125,9.1406257 7.5078125,9 C7.5078125,8.8593743 7.55468703,8.74218797 7.6484375,8.6484375 C7.74218797,8.55468703 7.8593743,8.5078125 8,8.5078125 C8.1406257,8.5078125 8.25781203,8.55468703 8.3515625,8.6484375 C8.44531297,8.74218797 8.4921875,8.8593743 8.4921875,9 Z M10.5078125,9 C10.5078125,9.1406257 10.4570318,9.25781203 10.3554688,9.3515625 C10.2539057,9.44531297 10.1328132,9.4921875 9.9921875,9.4921875 C9.8515618,9.4921875 9.73437547,9.44531297 9.640625,9.3515625 C9.54687453,9.25781203 9.5,9.1406257 9.5,9 C9.5,8.8593743 9.54687453,8.74218797 9.640625,8.6484375 C9.73437547,8.55468703 9.8515618,8.5078125 9.9921875,8.5078125 C10.1328132,8.5078125 10.2539057,8.55468703 10.3554688,8.6484375 C10.4570318,8.74218797 10.5078125,8.8593743 10.5078125,9 Z M12.5,9 C12.5,9.1406257 12.4531255,9.25781203 12.359375,9.3515625 C12.2656245,9.44531297 12.1484382,9.4921875 12.0078125,9.4921875 C11.8671868,9.4921875 11.7460943,9.44531297 11.6445312,9.3515625 C11.5429682,9.25781203 11.4921875,9.1406257 11.4921875,9 C11.4921875,8.8593743 11.5429682,8.74218797 11.6445312,8.6484375 C11.7460943,8.55468703 11.8671868,8.5078125 12.0078125,8.5078125 C12.1484382,8.5078125 12.2656245,8.55468703 12.359375,8.6484375 C12.4531255,8.74218797 12.5,8.8593743 12.5,9 Z M8.4921875,10.9921875 C8.4921875,11.1328132 8.44531297,11.2539057 8.3515625,11.3554688 C8.25781203,11.4570318 8.1406257,11.5078125 8,11.5078125 C7.8593743,11.5078125 7.74218797,11.4570318 7.6484375,11.3554688 C7.55468703,11.2539057 7.5078125,11.1328132 7.5078125,10.9921875 C7.5078125,10.8515618 7.55468703,10.7343755 7.6484375,10.640625 C7.74218797,10.5468745 7.8593743,10.5 8,10.5 C8.1406257,10.5 8.25781203,10.5468745 8.3515625,10.640625 C8.44531297,10.7343755 8.4921875,10.8515618 8.4921875,10.9921875 Z M10.5078125,10.9921875 C10.5078125,11.1328132 10.4570318,11.2539057 10.3554688,11.3554688 C10.2539057,11.4570318 10.1328132,11.5078125 9.9921875,11.5078125 C9.8515618,11.5078125 9.73437547,11.4570318 9.640625,11.3554688 C9.54687453,11.2539057 9.5,11.1328132 9.5,10.9921875 C9.5,10.8515618 9.54687453,10.7343755 9.640625,10.640625 C9.73437547,10.5468745 9.8515618,10.5 9.9921875,10.5 C10.1328132,10.5 10.2539057,10.5468745 10.3554688,10.640625 C10.4570318,10.7343755 10.5078125,10.8515618 10.5078125,10.9921875 Z M6.5,10.9921875 C6.5,11.1328132 6.45312547,11.2539057 6.359375,11.3554688 C6.26562453,11.4570318 6.1484382,11.5078125 6.0078125,11.5078125 C5.8671868,11.5078125 5.74609426,11.4570318 5.64453125,11.3554688 C5.54296824,11.2539057 5.4921875,11.1328132 5.4921875,10.9921875 C5.4921875,10.8515618 5.54296824,10.7343755 5.64453125,10.640625 C5.74609426,10.5468745 5.8671868,10.5 6.0078125,10.5 C6.1484382,10.5 6.26562453,10.5468745 6.359375,10.640625 C6.45312547,10.7343755 6.5,10.8515618 6.5,10.9921875 Z M4.5078125,10.9921875 C4.5078125,11.1328132 4.45703176,11.2539057 4.35546875,11.3554688 C4.25390574,11.4570318 4.1328132,11.5078125 3.9921875,11.5078125 C3.8515618,11.5078125 3.73437547,11.4570318 3.640625,11.3554688 C3.54687453,11.2539057 3.5,11.1328132 3.5,10.9921875 C3.5,10.8515618 3.54687453,10.7343755 3.640625,10.640625 C3.73437547,10.5468745 3.8515618,10.5 3.9921875,10.5 C4.1328132,10.5 4.25390574,10.5468745 4.35546875,10.640625 C4.45703176,10.7343755 4.5078125,10.8515618 4.5078125,10.9921875 Z" fill="#53565A"></path>
                        </g>
                    </g>
                </g>
            </g>
        </g>
    </g>
</svg>